<?xml version="1.0" encoding="UTF-8"?>
<svg version="1.1" xmlns="http://www.w3.org/2000/svg" width="32" height="32">
<path d="M0 0 C0.74636719 -0.01160156 1.49273437 -0.02320312 2.26171875 -0.03515625 C6.68482042 -0.01167075 10.17548867 0.14283621 13.5 3.375 C14.17372827 8.61582858 13.0426941 13.67887544 12 18.8125 C11.85691406 19.54404297 11.71382812 20.27558594 11.56640625 21.02929688 C11.21678704 22.81235486 10.85922312 24.59385203 10.5 26.375 C12.15 26.705 13.8 27.035 15.5 27.375 C14.5 30.375 14.5 30.375 12.375 31.54296875 C8.98212996 32.52487271 6.03101664 32.67608508 2.5 32.6875 C1.30375 32.70425781 0.1075 32.72101562 -1.125 32.73828125 C-4.95897593 32.32559634 -6.67073575 32.01397745 -9.5 29.375 C-10.6954926 26.36400177 -11.25465038 23.30788227 -11.8125 20.125 C-12.06483398 18.87396484 -12.06483398 18.87396484 -12.32226562 17.59765625 C-14.14454985 8.1217783 -14.14454985 8.1217783 -13.5 3.375 C-9.63912639 -0.37862712 -5.07535091 -0.07889146 0 0 Z " fill="#6D6D43" transform="translate(15.5,-0.375)"/>
<path d="M0 0 C1.7015625 0.2475 1.7015625 0.2475 3.4375 0.5 C5.71132519 0.85632203 5.71132519 0.85632203 8 1 C8.9590625 1.2475 8.9590625 1.2475 9.9375 1.5 C13.7535348 2.42509935 16.34710658 1.27057162 20 0 C22.22598452 5.07029807 21.85033975 7.83852595 20 13 C19.67 13.99 19.34 14.98 19 16 C17.35 16.33 15.7 16.66 14 17 C14 16.34 14 15.68 14 15 C13.2575 15.309375 12.515 15.61875 11.75 15.9375 C9.49307824 16.8094925 7.3549847 17.47667007 5 18 C2.9375 15.6875 2.9375 15.6875 1 13 C1.33 12.01 1.66 11.02 2 10 C2.1798887 7.79807493 2.1798887 7.79807493 0.4375 5.5625 C-0.036875 4.716875 -0.51125 3.87125 -1 3 C-0.67 2.01 -0.34 1.02 0 0 Z " fill="#D3D3D3" transform="translate(5,8)"/>
<path d="M0 0 C0.99 1.485 0.99 1.485 2 3 C5.71279469 4.23759823 9.31306346 4.35608897 13.1875 4.5625 C13.93708984 4.60568359 14.68667969 4.64886719 15.45898438 4.69335938 C17.30578375 4.79922685 19.15286834 4.9000976 21 5 C18.77810176 7.22189824 16.91517292 7.92598892 14 9 C14 8.34 14 7.68 14 7 C13.01 6.67 12.02 6.34 11 6 C11 6.66 11 7.32 11 8 C8.36 7.34 5.72 6.68 3 6 C2.67 6.66 2.34 7.32 2 8 C2.66 8.33 3.32 8.66 4 9 C5.6875 11.4375 5.6875 11.4375 7 14 C6.67 14.66 6.34 15.32 6 16 C5.75846133 18.90722147 5.75846133 18.90722147 7 20.8125 C9.55092204 22.32710996 10.37166934 21.89519549 13.1875 21.1875 C14.445625 20.795625 15.70375 20.40375 17 20 C17.33 20.99 17.66 21.98 18 23 C15.69 23.66 13.38 24.32 11 25 C11 25.66 11 26.32 11 27 C14.34252724 27.07427838 16.8035914 27.06546953 20 26 C20.33 26.66 20.66 27.32 21 28 C18.27182878 28.90939041 16.45290223 29.19209074 13.625 29.25 C12.87476563 29.27578125 12.12453125 29.3015625 11.3515625 29.328125 C8.05969812 28.86879509 6.52762144 28.21324066 4 26 C2.79231493 22.99458067 2.24516003 19.93180052 1.6875 16.75 C1.43516602 15.49896484 1.43516602 15.49896484 1.17773438 14.22265625 C0.25104717 9.40388277 -0.1788864 4.90281235 0 0 Z " fill="#49493E" transform="translate(2,3)"/>
<path d="M0 0 C0.33 0 0.66 0 1 0 C1.16898112 5.35810969 0.56511422 10.19349172 -0.5 15.4375 C-0.64308594 16.16904297 -0.78617188 16.90058594 -0.93359375 17.65429688 C-1.28321296 19.43735486 -1.64077688 21.21885203 -2 23 C-0.35 23.33 1.3 23.66 3 24 C2 27 2 27 -0.25 28.1875 C-2.99791147 28.99938294 -5.15447889 29.16260121 -8 29 C-7.67 28.34 -7.34 27.68 -7 27 C-7.886875 27.185625 -8.77375 27.37125 -9.6875 27.5625 C-12.85178811 27.98042484 -14.94839642 27.80777742 -18 27 C-14.06968942 23.30789006 -11.28596712 22.60991928 -6 22 C-5.67 21.34 -5.34 20.68 -5 20 C-4.66226562 19.39671875 -4.32453125 18.7934375 -3.9765625 18.171875 C-2.90413977 15.78680685 -2.60411749 13.84666484 -2.375 11.25 C-2.30023438 10.45078125 -2.22546875 9.6515625 -2.1484375 8.828125 C-2.09945313 8.22484375 -2.05046875 7.6215625 -2 7 C-2.66 6.67 -3.32 6.34 -4 6 C-4.33 5.34 -4.66 4.68 -5 4 C-4.0409375 3.8453125 -4.0409375 3.8453125 -3.0625 3.6875 C-2.381875 3.460625 -1.70125 3.23375 -1 3 C-0.67 2.01 -0.34 1.02 0 0 Z " fill="#585833" transform="translate(28,3)"/>
<path d="M0 0 C6.10646426 0.11973459 6.10646426 0.11973459 8.578125 2.5546875 C12 7.29418103 12 7.29418103 12 10 C11.01 10.495 11.01 10.495 10 11 C9.690625 11.99 9.38125 12.98 9.0625 14 C8.711875 14.99 8.36125 15.98 8 17 C7.01 17.33 6.02 17.66 5 18 C2.9375 15.6875 2.9375 15.6875 1 13 C1.33 12.01 1.66 11.02 2 10 C2.1798887 7.79807493 2.1798887 7.79807493 0.4375 5.5625 C-0.036875 4.716875 -0.51125 3.87125 -1 3 C-0.67 2.01 -0.34 1.02 0 0 Z " fill="#595959" transform="translate(5,8)"/>
<path d="M0 0 C0.99 1.485 0.99 1.485 2 3 C5.71279469 4.23759823 9.31306346 4.35608897 13.1875 4.5625 C13.93708984 4.60568359 14.68667969 4.64886719 15.45898438 4.69335938 C17.30578375 4.79922685 19.15286834 4.9000976 21 5 C18.77810176 7.22189824 16.91517292 7.92598892 14 9 C14 8.34 14 7.68 14 7 C13.01 6.67 12.02 6.34 11 6 C11 6.66 11 7.32 11 8 C8.36 7.34 5.72 6.68 3 6 C2.67 6.66 2.34 7.32 2 8 C2.66 8.33 3.32 8.66 4 9 C4.625 11.0625 4.625 11.0625 5 13 C4.34 13 3.68 13 3 13 C2.67 13.66 2.34 14.32 2 15 C0.53329887 9.77487721 -0.22577402 5.4185766 0 0 Z " fill="#1F1F1F" transform="translate(2,3)"/>
<path d="M0 0 C2.31 0.33 4.62 0.66 7 1 C7.66 2.98 8.32 4.96 9 7 C8.01 7.33 7.02 7.66 6 8 C6.66 9.32 7.32 10.64 8 12 C7.01 12 6.02 12 5 12 C3.359375 10.13671875 3.359375 10.13671875 1.75 7.6875 C1.20859375 6.88699219 0.6671875 6.08648437 0.109375 5.26171875 C-1 3 -1 3 0 0 Z " fill="#E5E5E5" transform="translate(5,8)"/>
<path d="M0 0 C1.28390625 0.48726563 1.28390625 0.48726563 2.59375 0.984375 C6.08531323 2.02543743 8.86917938 2.26728962 12.5 2.25 C14.12421875 2.25773438 14.12421875 2.25773438 15.78125 2.265625 C19.13574256 1.98879794 21.86306413 1.19052385 25 0 C24.67 1.32 24.34 2.64 24 4 C20.06607877 5.28057332 16.09077625 5.18379459 12 5.1875 C11.2884375 5.19974609 10.576875 5.21199219 9.84375 5.22460938 C6.065513 5.2351828 3.20306342 5.11035168 0 3 C0 2.01 0 1.02 0 0 Z " fill="#FBFB75" transform="translate(3,3)"/>
<path d="M0 0 C0.61875 0.165 1.2375 0.33 1.875 0.5 C3.96063386 1.07634644 3.96063386 1.07634644 6 1 C6.99 1 7.98 1 9 1 C9 1.99 9 2.98 9 4 C8.01 4.33 7.02 4.66 6 5 C6.99 6.485 6.99 6.485 8 8 C7.67 8.66 7.34 9.32 7 10 C2.57320993 8.52440331 2.08567304 6.09942632 0 2 C0 1.34 0 0.68 0 0 Z " fill="#E2E2E2" transform="translate(13,9)"/>
<path d="M0 0 C0.33 0 0.66 0 1 0 C1.48452463 6.94485303 -0.30712509 13.2990368 -2 20 C-2.66 19.01 -3.32 18.02 -4 17 C-3.39816251 14.97954558 -2.72693904 12.97888961 -2 11 C-2 9.68 -2 8.36 -2 7 C-2.66 6.67 -3.32 6.34 -4 6 C-4.33 5.34 -4.66 4.68 -5 4 C-4.0409375 3.8453125 -4.0409375 3.8453125 -3.0625 3.6875 C-2.381875 3.460625 -1.70125 3.23375 -1 3 C-0.67 2.01 -0.34 1.02 0 0 Z " fill="#0C0C0C" transform="translate(28,3)"/>
<path d="M0 0 C0.33 0.99 0.66 1.98 1 3 C2.65 3.33 4.3 3.66 6 4 C5 7 5 7 2.75 8.1875 C0.00208853 8.99938294 -2.15447889 9.16260121 -5 9 C-4.0409375 8.443125 -4.0409375 8.443125 -3.0625 7.875 C-0.36141928 5.41947207 -0.31592995 3.55421195 0 0 Z " fill="#808080" transform="translate(25,23)"/>
<path d="M0 0 C5.61 0.33 11.22 0.66 17 1 C14.77810176 3.22189824 12.91517292 3.92598892 10 5 C10 4.34 10 3.68 10 3 C9.01 2.67 8.02 2.34 7 2 C7 2.66 7 3.32 7 4 C4.69 3.34 2.38 2.68 0 2 C0 1.34 0 0.68 0 0 Z " fill="#101010" transform="translate(6,7)"/>
<path d="M0 0 C2.7839183 1.39195915 2.97898997 3.15575779 4 6 C2.68 6.33 1.36 6.66 0 7 C-0.38133299 5.0085944 -0.71325582 3.00720923 -1 1 C-0.67 0.67 -0.34 0.34 0 0 Z M-4 5 C-3.01 5.33 -2.02 5.66 -1 6 C-1.66 6.66 -2.32 7.32 -3 8 C-3.66 7.34 -4.32 6.68 -5 6 C-4.67 5.67 -4.34 5.34 -4 5 Z " fill="#888888" transform="translate(23,8)"/>
<path d="M0 0 C2 1 2 1 3.25 2.6875 C4.30863779 5.95163317 3.26747732 7.9017221 2 11 C1.34 10.67 0.68 10.34 0 10 C-0.44921875 7.96875 -0.44921875 7.96875 -0.6875 5.5 C-0.77386719 4.6853125 -0.86023438 3.870625 -0.94921875 3.03125 C-0.96597656 2.3609375 -0.98273437 1.690625 -1 1 C-0.67 0.67 -0.34 0.34 0 0 Z " fill="#DBDBDB" transform="translate(22,13)"/>
<path d="M0 0 C1.051875 0.495 1.051875 0.495 2.125 1 C6.39191269 2.48414354 9.73173805 2.42275398 14 1 C14.33 1.66 14.66 2.32 15 3 C12.22947819 3.92350727 10.43311242 4.16329585 7.5625 4.1875 C6.80066406 4.20167969 6.03882813 4.21585938 5.25390625 4.23046875 C2.76652685 3.97612666 1.15191894 3.24017196 -1 2 C-0.67 1.34 -0.34 0.68 0 0 Z " fill="#0A0A0A" transform="translate(8,28)"/>
<path d="M0 0 C-2.68841859 2.25245881 -4.64641875 3.88213958 -8 5 C-8.66 4.34 -9.32 3.68 -10 3 C-6.48812804 0.59185923 -4.27343092 -0.36629408 0 0 Z " fill="#C2C249" transform="translate(20,26)"/>
<path d="M0 0 C1.37562854 1.28965176 2.70766393 2.62689293 4 4 C4 4.66 4 5.32 4 6 C4.66 6.33 5.32 6.66 6 7 C5.01 7.33 4.02 7.66 3 8 C0.9375 5.6875 0.9375 5.6875 -1 3 C-0.67 2.01 -0.34 1.02 0 0 Z " fill="#E6E6E6" transform="translate(7,18)"/>
<path d="M0 0 C2.52588702 2.36292656 3.88820837 3.66462511 5 7 C4.01 7 3.02 7 2 7 C0.25 5.1875 0.25 5.1875 -1 3 C-0.67 2.01 -0.34 1.02 0 0 Z " fill="#E5E5E5" transform="translate(8,13)"/>
<path d="M0 0 C1.9375 0.75 1.9375 0.75 4 2 C4.75 4.125 4.75 4.125 5 6 C3.35 5.67 1.7 5.34 0 5 C-0.5625 3.0625 -0.5625 3.0625 -1 1 C-0.67 0.67 -0.34 0.34 0 0 Z " fill="#A5A5A5" transform="translate(5,8)"/>
<path d="M0 0 C0.66 0.99 1.32 1.98 2 3 C1.34 4.32 0.68 5.64 0 7 C-1.32 6.01 -2.64 5.02 -4 4 C-3.67 3.34 -3.34 2.68 -3 2 C-2.34 2.33 -1.68 2.66 -1 3 C-0.67 2.01 -0.34 1.02 0 0 Z " fill="#6B6B6B" transform="translate(21,16)"/>
<path d="M0 0 C0.33 0 0.66 0 1 0 C1 2.31 1 4.62 1 7 C-0.65 7 -2.3 7 -4 7 C-4.33 6.01 -4.66 5.02 -5 4 C-4.0409375 3.8453125 -4.0409375 3.8453125 -3.0625 3.6875 C-2.381875 3.460625 -1.70125 3.23375 -1 3 C-0.67 2.01 -0.34 1.02 0 0 Z " fill="#3C3C3C" transform="translate(28,3)"/>
<path d="M0 0 C0.33 0.99 0.66 1.98 1 3 C-2.375 3.625 -2.375 3.625 -6 4 C-6.66 3.34 -7.32 2.68 -8 2 C-2.25 0 -2.25 0 0 0 Z " fill="#0F0F0F" transform="translate(19,23)"/>
</svg>
