<?xml version="1.0" encoding="UTF-8"?>
<svg version="1.1" xmlns="http://www.w3.org/2000/svg" width="32" height="32">
<path d="M0 0 C0.77279297 -0.020625 1.54558594 -0.04125 2.34179688 -0.0625 C3.09138672 -0.06765625 3.84097656 -0.0728125 4.61328125 -0.078125 C5.29817627 -0.0874707 5.98307129 -0.09681641 6.6887207 -0.10644531 C9.44871979 0.38574947 10.73923116 1.23470664 12.6875 3.25 C13.17333984 5.85375977 13.17333984 5.85375977 13.1484375 8.94140625 C13.14457031 10.05064453 13.14070313 11.15988281 13.13671875 12.30273438 C13.11222656 13.46095703 13.08773438 14.61917969 13.0625 15.8125 C13.06121094 16.97458984 13.05992188 18.13667969 13.05859375 19.33398438 C12.9681713 27.9693287 12.9681713 27.9693287 10.6875 30.25 C7.83184641 30.47552341 5.1049649 30.57428763 2.25 30.5625 C1.08500977 30.58666992 1.08500977 30.58666992 -0.10351562 30.61132812 C-5.82086483 30.61625263 -5.82086483 30.61625263 -8.04711914 28.95776367 C-10.07016696 26.22744928 -9.49801478 23.5274278 -9.3125 20.25 C-11.6225 20.25 -13.9325 20.25 -16.3125 20.25 C-17.50464991 16.73407778 -17.33716954 16.30547667 -15.6953125 12.61328125 C-14.95508451 11.2561966 -14.2019712 9.90607732 -13.4375 8.5625 C-13.05980469 7.87349609 -12.68210937 7.18449219 -12.29296875 6.47460938 C-8.67532009 -0.07191855 -7.24945512 0.04765459 0 0 Z " fill="#407D7D" transform="translate(17.3125,0.75)"/>
<path d="M0 0 C0.33 0 0.66 0 1 0 C1.02886984 3.97915159 1.04675406 7.95827653 1.0625 11.9375 C1.07087891 13.07380859 1.07925781 14.21011719 1.08789062 15.38085938 C1.09272461 17.00024414 1.09272461 17.00024414 1.09765625 18.65234375 C1.10551147 20.15269165 1.10551147 20.15269165 1.11352539 21.68334961 C1 24 1 24 0 25 C-2.65653443 25.10002455 -5.28129272 25.13877463 -7.9375 25.125 C-9.0502832 25.13080078 -9.0502832 25.13080078 -10.18554688 25.13671875 C-15.74672998 25.12663501 -15.74672998 25.12663501 -18 24 C-18 21.69 -18 19.38 -18 17 C-17.31292969 16.99742188 -16.62585937 16.99484375 -15.91796875 16.9921875 C-13.16172604 16.87389382 -10.67538457 16.68510658 -8 16 C-6.04901119 13.09925069 -6.04901119 13.09925069 -5 10 C-2.8125 9.125 -2.8125 9.125 -1 9 C-1.20625 8.2575 -1.4125 7.515 -1.625 6.75 C-2.04408751 3.67669159 -1.61949011 2.57213134 0 0 Z " fill="#D9D9D9" transform="translate(27,4)"/>
<path d="M0 0 C1.32 0.33 2.64 0.66 4 1 C4 1.66 4 2.32 4 3 C7.3 3 10.6 3 14 3 C14.66 4.32 15.32 5.64 16 7 C15.06640625 9.72265625 15.06640625 9.72265625 13 12 C9.71484375 12.55859375 9.71484375 12.55859375 5.9375 12.4375 C4.68839844 12.41558594 3.43929688 12.39367188 2.15234375 12.37109375 C-1 12 -1 12 -3 10 C-2.67342446 6.24438133 -1.8830622 3.26397448 0 0 Z " fill="#4EC5C5" transform="translate(5,7)"/>
<path d="M0 0 C2.75059381 -0.08107646 5.49879021 -0.14052813 8.25 -0.1875 C9.02730469 -0.21263672 9.80460937 -0.23777344 10.60546875 -0.26367188 C11.35957031 -0.27333984 12.11367188 -0.28300781 12.890625 -0.29296875 C13.92751465 -0.31653442 13.92751465 -0.31653442 14.98535156 -0.34057617 C17.76430429 0.12920558 19.04441322 0.97220362 21 3 C21.48583984 5.60375977 21.48583984 5.60375977 21.4609375 8.69140625 C21.45707031 9.80064453 21.45320313 10.90988281 21.44921875 12.05273438 C21.42472656 13.21095703 21.40023438 14.36917969 21.375 15.5625 C21.37371094 16.72458984 21.37242188 17.88667969 21.37109375 19.08398438 C21.2806713 27.7193287 21.2806713 27.7193287 19 30 C16.12373171 30.22507384 13.37546976 30.32430406 10.5 30.3125 C9.71496094 30.32861328 8.92992187 30.34472656 8.12109375 30.36132812 C5.84375 30.36328125 5.84375 30.36328125 2 30 C1.34 29.01 0.68 28.02 0 27 C5.94 27 11.88 27 18 27 C18 19.74 18 12.48 18 5 C17.01 6.98 16.02 8.96 15 11 C14.00564594 7.90645403 14.12159004 6.09720845 15 3 C12.72923158 2.97300275 10.45837179 2.95360547 8.1875 2.9375 C6.92292969 2.92589844 5.65835937 2.91429687 4.35546875 2.90234375 C1.00394763 2.83840884 1.00394763 2.83840884 -2 4 C-1.34 2.68 -0.68 1.36 0 0 Z " fill="#404040" transform="translate(9,1)"/>
<path d="M0 0 C0.99 0.33 1.98 0.66 3 1 C3 1.66 3 2.32 3 3 C6.3 3 9.6 3 13 3 C13.66 4.32 14.32 5.64 15 7 C13.625 9.75 13.625 9.75 12 12 C8.60140297 10.53033642 6.35036291 8.61962486 3.75 6 C3.04359375 5.29875 2.3371875 4.5975 1.609375 3.875 C0 2 0 2 0 0 Z " fill="#67DDDD" transform="translate(6,7)"/>
<path d="M0 0 C0.66 0 1.32 0 2 0 C0.125 5.875 0.125 5.875 -1 7 C-2.68608966 7.07205511 -4.37500659 7.08386068 -6.0625 7.0625 C-6.98160156 7.05347656 -7.90070312 7.04445313 -8.84765625 7.03515625 C-9.55792969 7.02355469 -10.26820312 7.01195312 -11 7 C-11 9.31 -11 11.62 -11 14 C-11.33 14 -11.66 14 -12 14 C-12 11.69 -12 9.38 -12 7 C-14.31 7 -16.62 7 -19 7 C-19.625 5.125 -19.625 5.125 -20 3 C-19.34 2.34 -18.68 1.68 -18 1 C-17.34 1.99 -16.68 2.98 -16 4 C-12.64496524 4.36558117 -12.64496524 4.36558117 -8.875 4.1875 C-7.59367188 4.16042969 -6.31234375 4.13335938 -4.9921875 4.10546875 C-4.00476562 4.07066406 -3.01734375 4.03585938 -2 4 C-1.34 2.68 -0.68 1.36 0 0 Z " fill="#063F3F" transform="translate(20,14)"/>
<path d="M0 0 C4.62 0 9.24 0 14 0 C14.33 0.99 14.66 1.98 15 3 C13.5625 5.1875 13.5625 5.1875 12 7 C11.34 6.34 10.68 5.68 10 5 C7.56747339 4.53837573 7.56747339 4.53837573 4.875 4.375 C3.96492187 4.30023437 3.05484375 4.22546875 2.1171875 4.1484375 C1.41851562 4.09945313 0.71984375 4.05046875 0 4 C0 2.68 0 1.36 0 0 Z " fill="#57E2E2" transform="translate(10,3)"/>
<path d="M0 0 C5.94 0 11.88 0 18 0 C18 0.33 18 0.66 18 1 C16.35 1 14.7 1 13 1 C13 1.66 13 2.32 13 3 C14.65 3 16.3 3 18 3 C18 3.33 18 3.66 18 4 C12.06 4 6.12 4 0 4 C0 2.68 0 1.36 0 0 Z " fill="#9A9A9A" transform="translate(9,22)"/>
<path d="M0 0 C2.77141717 -0.08089542 5.54047819 -0.14044062 8.3125 -0.1875 C9.09818359 -0.21263672 9.88386719 -0.23777344 10.69335938 -0.26367188 C11.45068359 -0.27333984 12.20800781 -0.28300781 12.98828125 -0.29296875 C14.03302612 -0.31653442 14.03302612 -0.31653442 15.09887695 -0.34057617 C17.54489783 0.09761557 18.42702086 1.13437358 20 3 C19.34 3 18.68 3 18 3 C17.71125 3.94875 17.4225 4.8975 17.125 5.875 C16 9 16 9 14 11 C14.33 8.36 14.66 5.72 15 3 C12.72923158 2.97300275 10.45837179 2.95360547 8.1875 2.9375 C6.92292969 2.92589844 5.65835937 2.91429687 4.35546875 2.90234375 C1.00394763 2.83840884 1.00394763 2.83840884 -2 4 C-1.34 2.68 -0.68 1.36 0 0 Z " fill="#1F3333" transform="translate(9,1)"/>
<path d="M0 0 C3.91939465 3.80411834 7.49102731 7.81576108 11 12 C7.33939179 11.41463247 5.45464836 9.916761 2.75 7.4375 C2.04359375 6.79683594 1.3371875 6.15617188 0.609375 5.49609375 C-0.18726563 4.75552734 -0.18726563 4.75552734 -1 4 C-0.67 2.68 -0.34 1.36 0 0 Z " fill="#3ACDCD" transform="translate(5,7)"/>
<path d="M0 0 C3.375 0.3125 3.375 0.3125 7 1 C7.66 1.99 8.32 2.98 9 4 C6.03 4 3.06 4 0 4 C0 2.68 0 1.36 0 0 Z " fill="#66DDDD" transform="translate(10,3)"/>
<path d="M0 0 C4.2742558 1.5830577 6.26531794 4.50568404 9 8 C4.75153925 7.52794881 2.73180712 5.11122478 0 2 C0 1.34 0 0.68 0 0 Z " fill="#7DD5D5" transform="translate(4,11)"/>
<path d="M0 0 C1.98 0 3.96 0 6 0 C5.01 0.33 4.02 0.66 3 1 C3 1.66 3 2.32 3 3 C3.99 3.33 4.98 3.66 6 4 C3.69 4 1.38 4 -1 4 C-0.67 2.68 -0.34 1.36 0 0 Z " fill="#969696" transform="translate(21,16)"/>
</svg>
