<?xml version="1.0" encoding="UTF-8"?>
<svg version="1.1" xmlns="http://www.w3.org/2000/svg" width="32" height="32">
<path d="M0 0 C3.64588169 -0.02682987 7.29156846 -0.04675569 10.9375 -0.0625 C12.49887695 -0.07506836 12.49887695 -0.07506836 14.09179688 -0.08789062 C15.08115234 -0.09111328 16.07050781 -0.09433594 17.08984375 -0.09765625 C18.46450806 -0.10551147 18.46450806 -0.10551147 19.86694336 -0.11352539 C22 0 22 0 23 1 C23.04080783 2.99958364 23.04254356 5.00045254 23 7 C23.99 7 24.98 7 26 7 C27.59412284 10.18824568 27.10174735 13.62896662 27.0625 17.125 C27.05798828 17.87910156 27.05347656 18.63320313 27.04882812 19.41015625 C27.03703499 21.27347127 27.01909942 23.13674555 27 25 C24.69 25 22.38 25 20 25 C20 26.98 20 28.96 20 31 C16.18751574 31.02887236 12.3750593 31.04675492 8.5625 31.0625 C7.47388672 31.07087891 6.38527344 31.07925781 5.26367188 31.08789062 C4.22919922 31.09111328 3.19472656 31.09433594 2.12890625 31.09765625 C1.17056885 31.10289307 0.21223145 31.10812988 -0.77514648 31.11352539 C-3 31 -3 31 -4 30 C-4.08631874 28.65732587 -4.10706473 27.31025678 -4.09765625 25.96484375 C-4.09443359 25.15595703 -4.09121094 24.34707031 -4.08789062 23.51367188 C-4.07951172 22.66353516 -4.07113281 21.81339844 -4.0625 20.9375 C-4.05798828 20.08349609 -4.05347656 19.22949219 -4.04882812 18.34960938 C-4.03700373 16.23304337 -4.01906769 14.11651315 -4 12 C-2.68 12 -1.36 12 0 12 C0 8.04 0 4.08 0 0 Z " fill="#0E3737" transform="translate(4,0)"/>
<path d="M0 0 C6.93 0 13.86 0 21 0 C21 4.62 21 9.24 21 14 C14.07 14 7.14 14 0 14 C0 9.38 0 4.76 0 0 Z " fill="#787B7D" transform="translate(1,15)"/>
<path d="M0 0 C3.64581687 -0.02887512 7.29160463 -0.04675585 10.9375 -0.0625 C12.49887695 -0.07506836 12.49887695 -0.07506836 14.09179688 -0.08789062 C15.57583008 -0.09272461 15.57583008 -0.09272461 17.08984375 -0.09765625 C18.46450806 -0.10551147 18.46450806 -0.10551147 19.86694336 -0.11352539 C22 0 22 0 23 1 C23.04080783 2.99958364 23.04254356 5.00045254 23 7 C23.99 7 24.98 7 26 7 C25.67 12.28 25.34 17.56 25 23 C23.35 23 21.7 23 20 23 C20.01160156 22.36191406 20.02320312 21.72382813 20.03515625 21.06640625 C20.04417969 20.24011719 20.05320312 19.41382812 20.0625 18.5625 C20.07410156 17.73878906 20.08570312 16.91507813 20.09765625 16.06640625 C20.23267348 14.00836062 20.23267348 14.00836062 19 13 C17.65252916 12.76924918 16.29622435 12.58846937 14.9375 12.4375 C13.638125 12.293125 12.33875 12.14875 11 12 C10.67 10.35 10.34 8.7 10 7 C13.63 7 17.26 7 21 7 C21 5.68 21 4.36 21 3 C14.07 2.67 7.14 2.34 0 2 C0 1.34 0 0.68 0 0 Z " fill="#0E7070" transform="translate(4,0)"/>
<path d="M0 0 C0.66 0 1.32 0 2 0 C2 5.28 2 10.56 2 16 C-0.31 16 -2.62 16 -5 16 C-5 17.98 -5 19.96 -5 22 C-8.81248426 22.02887236 -12.6249407 22.04675492 -16.4375 22.0625 C-17.52611328 22.07087891 -18.61472656 22.07925781 -19.73632812 22.08789062 C-20.77080078 22.09111328 -21.80527344 22.09433594 -22.87109375 22.09765625 C-23.82943115 22.10289307 -24.78776855 22.10812988 -25.77514648 22.11352539 C-28 22 -28 22 -29 21 C-29.07325436 18.3013095 -29.09222351 15.63497444 -29.0625 12.9375 C-29.041875 10.318125 -29.02125 7.69875 -29 5 C-22.4 5 -15.8 5 -9 5 C-9 5.33 -9 5.66 -9 6 C-15.27 6 -21.54 6 -28 6 C-28 10.62 -28 15.24 -28 20 C-21.07 20 -14.14 20 -7 20 C-7 18.02 -7 16.04 -7 14 C-4.69 14 -2.38 14 0 14 C0 9.38 0 4.76 0 0 Z " fill="#303030" transform="translate(29,9)"/>
<path d="M0 0 C3.96 0 7.92 0 12 0 C11.01 0.33 10.02 0.66 9 1 C8.66781808 4.00259517 8.66781808 4.00259517 10.5 5.6875 C10.995 6.120625 11.49 6.55375 12 7 C10.68 7.33 9.36 7.66 8 8 C9.15173355 10.46800047 10.04783565 12.04783565 12 14 C8.04 14 4.08 14 0 14 C0 9.38 0 4.76 0 0 Z " fill="#A49BA4" transform="translate(1,15)"/>
<path d="M0 0 C6.6 0 13.2 0 20 0 C20 1.32 20 2.64 20 4 C16.37 4 12.74 4 9 4 C9 5.65 9 7.3 9 9 C6.03 9 3.06 9 0 9 C0 6.03 0 3.06 0 0 Z " fill="#0000BE" transform="translate(5,3)"/>
<path d="M0 0 C4.62 0 9.24 0 14 0 C14 4.29 14 8.58 14 13 C12.35 13 10.7 13 9 13 C9.01160156 12.36191406 9.02320313 11.72382813 9.03515625 11.06640625 C9.04417969 10.24011719 9.05320312 9.41382813 9.0625 8.5625 C9.07410156 7.73878906 9.08570313 6.91507813 9.09765625 6.06640625 C9.23267348 4.00836062 9.23267348 4.00836062 8 3 C6.65252916 2.76924918 5.29622435 2.58846937 3.9375 2.4375 C2.638125 2.293125 1.33875 2.14875 0 2 C0 1.34 0 0.68 0 0 Z " fill="#EFEFEF" transform="translate(15,10)"/>
<path d="M0 0 C1.98 0 3.96 0 6 0 C5.01 0.33 4.02 0.66 3 1 C2.66781808 4.00259517 2.66781808 4.00259517 4.5 5.6875 C4.995 6.120625 5.49 6.55375 6 7 C4.68 7.33 3.36 7.66 2 8 C3.15173355 10.46800047 4.04783565 12.04783565 6 14 C3.03 14 0.06 14 -3 14 C-3 13.01 -3 12.02 -3 11 C-2.01 11 -1.02 11 0 11 C0 10.01 0 9.02 0 8 C-0.66 7.67 -1.32 7.34 -2 7 C-2.33 6.34 -2.66 5.68 -3 5 C-2.01 5 -1.02 5 0 5 C0 3.35 0 1.7 0 0 Z " fill="#FFFFFF" transform="translate(7,15)"/>
<path d="M0 0 C0.33 0 0.66 0 1 0 C1 1.65 1 3.3 1 5 C2.32 5 3.64 5 5 5 C4.67 5.99 4.34 6.98 4 8 C-0.95 7.67 -5.9 7.34 -11 7 C-11 6.34 -11 5.68 -11 5 C-7.37 5 -3.74 5 0 5 C0 3.35 0 1.7 0 0 Z " fill="#005B5B" transform="translate(25,2)"/>
<path d="M0 0 C0.99 0 1.98 0 3 0 C3 4.62 3 9.24 3 14 C2.01 13.67 1.02 13.34 0 13 C0 8.71 0 4.42 0 0 Z " fill="#FFFFFF" transform="translate(19,15)"/>
<path d="M0 0 C1.67542976 0.28604898 3.34385343 0.61781233 5 1 C5 1.99 5 2.98 5 4 C3.35 4.33 1.7 4.66 0 5 C-0.5625 3.0625 -0.5625 3.0625 -1 1 C-0.67 0.67 -0.34 0.34 0 0 Z " fill="#7F7FE7" transform="translate(7,4)"/>
</svg>
