<?xml version="1.0" encoding="UTF-8"?>
<svg version="1.1" xmlns="http://www.w3.org/2000/svg" width="32" height="32">
<path d="M0 0 C4.25414623 -0.02465622 8.50825498 -0.04283899 12.76245117 -0.05493164 C14.21070073 -0.05997101 15.65894517 -0.06680253 17.10717773 -0.07543945 C19.18474588 -0.08752247 21.26224697 -0.09323211 23.33984375 -0.09765625 C24.59144287 -0.10289307 25.84304199 -0.10812988 27.13256836 -0.11352539 C30 0 30 0 31 1 C31.08737645 2.85369611 31.10698153 4.71067541 31.09765625 6.56640625 C31.09443359 7.69111328 31.09121094 8.81582031 31.08789062 9.97460938 C31.07951172 11.15861328 31.07113281 12.34261719 31.0625 13.5625 C31.05798828 14.75037109 31.05347656 15.93824219 31.04882812 17.16210938 C31.03699675 20.10812226 31.02051287 23.05403681 31 26 C26.74585377 26.02465622 22.49174502 26.04283899 18.23754883 26.05493164 C16.78929927 26.05997101 15.34105483 26.06680253 13.89282227 26.07543945 C11.81525412 26.08752247 9.73775303 26.09323211 7.66015625 26.09765625 C6.40855713 26.10289307 5.15695801 26.10812988 3.86743164 26.11352539 C1 26 1 26 0 25 C-0.08737645 23.14630389 -0.10698153 21.28932459 -0.09765625 19.43359375 C-0.09443359 18.30888672 -0.09121094 17.18417969 -0.08789062 16.02539062 C-0.07951172 14.84138672 -0.07113281 13.65738281 -0.0625 12.4375 C-0.05798828 11.24962891 -0.05347656 10.06175781 -0.04882812 8.83789062 C-0.03699675 5.89187774 -0.02051287 2.94596319 0 0 Z " fill="#E6E5E4" transform="translate(1,3)"/>
<path d="M0 0 C4.25414623 -0.02465622 8.50825498 -0.04283899 12.76245117 -0.05493164 C14.21070073 -0.05997101 15.65894517 -0.06680253 17.10717773 -0.07543945 C19.18474588 -0.08752247 21.26224697 -0.09323211 23.33984375 -0.09765625 C24.59144287 -0.10289307 25.84304199 -0.10812988 27.13256836 -0.11352539 C30 0 30 0 31 1 C31.08737645 2.85369611 31.10698153 4.71067541 31.09765625 6.56640625 C31.09443359 7.69111328 31.09121094 8.81582031 31.08789062 9.97460938 C31.07951172 11.15861328 31.07113281 12.34261719 31.0625 13.5625 C31.05798828 14.75037109 31.05347656 15.93824219 31.04882812 17.16210938 C31.03699675 20.10812226 31.02051287 23.05403681 31 26 C26.74585377 26.02465622 22.49174502 26.04283899 18.23754883 26.05493164 C16.78929927 26.05997101 15.34105483 26.06680253 13.89282227 26.07543945 C11.81525412 26.08752247 9.73775303 26.09323211 7.66015625 26.09765625 C6.40855713 26.10289307 5.15695801 26.10812988 3.86743164 26.11352539 C1 26 1 26 0 25 C-0.08737645 23.14630389 -0.10698153 21.28932459 -0.09765625 19.43359375 C-0.09443359 18.30888672 -0.09121094 17.18417969 -0.08789062 16.02539062 C-0.07951172 14.84138672 -0.07113281 13.65738281 -0.0625 12.4375 C-0.05798828 11.24962891 -0.05347656 10.06175781 -0.04882812 8.83789062 C-0.03699675 5.89187774 -0.02051287 2.94596319 0 0 Z M1 4 C1 10.6 1 17.2 1 24 C10.24 24 19.48 24 29 24 C29 17.4 29 10.8 29 4 C19.76 4 10.52 4 1 4 Z " fill="#324F4F" transform="translate(1,3)"/>
<path d="M0 0 C1.4606285 2.64738916 2 3.89448334 2 7 C0.02 7 -1.96 7 -4 7 C-3.43628586 3.73045798 -2.50037734 2.17424117 0 0 Z " fill="#6A356A" transform="translate(8,18)"/>
<path d="M0 0 C1.32 0 2.64 0 4 0 C4.33 1.65 4.66 3.3 5 5 C3.02 5 1.04 5 -1 5 C-0.67 3.35 -0.34 1.7 0 0 Z " fill="#35355F" transform="translate(23,9)"/>
<path d="M0 0 C0.99 0 1.98 0 3 0 C3.33 1.65 3.66 3.3 4 5 C2.35 5 0.7 5 -1 5 C-1 1 -1 1 0 0 Z " fill="#353535" transform="translate(6,9)"/>
<path d="M0 0 C1.98 0.495 1.98 0.495 4 1 C3.67 2.32 3.34 3.64 3 5 C1.68 4.67 0.36 4.34 -1 4 C-0.67 2.68 -0.34 1.36 0 0 Z " fill="#00486D" transform="translate(23,18)"/>
<path d="M0 0 C0.99 0 1.98 0 3 0 C3 1.65 3 3.3 3 5 C1.35 4.67 -0.3 4.34 -2 4 C-1.34 2.68 -0.68 1.36 0 0 Z " fill="#132C2C" transform="translate(15,9)"/>
</svg>
