<?xml version="1.0" encoding="UTF-8"?>
<svg version="1.1" xmlns="http://www.w3.org/2000/svg" width="32" height="32">
<path d="M0 0 C2.3125 1.75 2.3125 1.75 3.1875 3.8125 C3.27204431 5.12293681 3.3125 6.43683879 3.3125 7.75 C4.7975 8.430625 4.7975 8.430625 6.3125 9.125 C9.3125 11.75 9.3125 11.75 9.88671875 14.57421875 C10.09849121 20.62799021 10.09849121 20.62799021 9.3125 23.75 C6.8203125 25.484375 6.8203125 25.484375 4.3125 26.75 C3.43427688 28.83533633 3.43427688 28.83533633 3.3125 30.75 C1.9925 30.09 0.6725 29.43 -0.6875 28.75 C-0.74149736 27.29207116 -0.78029177 25.83357288 -0.8125 24.375 C-0.83570312 23.56289063 -0.85890625 22.75078125 -0.8828125 21.9140625 C-0.6875 19.75 -0.6875 19.75 1.3125 17.75 C0.60996094 18.07355469 -0.09257812 18.39710937 -0.81640625 18.73046875 C-6.80380805 20.85660735 -13.38685471 20.49088577 -19.375 18.5625 C-21.6875 16.75 -21.6875 16.75 -22.625 14.375 C-22.68955619 11.66363988 -22.23050043 9.39712711 -21.6875 6.75 C-22.05606864 4.51832815 -22.05606864 4.51832815 -22.6875 2.75 C-16.10384431 -2.47152003 -7.84909119 -2.66070888 0 0 Z " fill="#0F2323" transform="translate(22.6875,1.25)"/>
<path d="M0 0 C1.02867188 -0.01417969 2.05734375 -0.02835937 3.1171875 -0.04296875 C6.17963488 0.19168631 8.35748861 0.89565428 11.125 2.1875 C10.25 6.9375 10.25 6.9375 9.125 9.1875 C6.815 9.1875 4.505 9.1875 2.125 9.1875 C2.125 8.5275 2.125 7.8675 2.125 7.1875 C0.475 7.1875 -1.175 7.1875 -2.875 7.1875 C-2.875 7.8475 -2.875 8.5075 -2.875 9.1875 C-5.2181213 8.93188677 -7.55343403 8.59479228 -9.875 8.1875 C-10.205 7.5275 -10.535 6.8675 -10.875 6.1875 C-8.895 6.1875 -6.915 6.1875 -4.875 6.1875 C-4.875 5.5275 -4.875 4.8675 -4.875 4.1875 C-6.525 4.1875 -8.175 4.1875 -9.875 4.1875 C-9.545 3.1975 -9.215 2.2075 -8.875 1.1875 C-5.69954097 0.12901366 -3.33491204 0.02079122 0 0 Z " fill="#CECECE" transform="translate(12.875,-0.1875)"/>
<path d="M0 0 C5.75 2.75 5.75 2.75 8 5 C8.55000198 8.0510636 8.57366423 10.95170578 8 14 C5.5625 15.8125 5.5625 15.8125 3 17 C2.12177688 19.08533633 2.12177688 19.08533633 2 21 C0.68 20.34 -0.64 19.68 -2 19 C-2.08096803 17.54257537 -2.13917774 16.08387193 -2.1875 14.625 C-2.22230469 13.81289063 -2.25710937 13.00078125 -2.29296875 12.1640625 C-2.19628906 11.44992188 -2.09960938 10.73578125 -2 10 C-1.01 9.34 -0.02 8.68 1 8 C0.67 7.67 0.34 7.34 0 7 C-0.04092937 4.66702567 -0.04241723 2.33294775 0 0 Z M6 5 C7 7 7 7 7 7 Z " fill="#0A4949" transform="translate(24,11)"/>
<path d="M0 0 C4.455 0.99 4.455 0.99 9 2 C9 2.99 9 3.98 9 5 C8.01 5.66 7.02 6.32 6 7 C11.4389165 7.21755666 15.87080814 7.10428384 21 5 C21 5.99 21 6.98 21 8 C14.36975399 11.05356284 7.21545153 11.03548439 0.3125 8.8125 C-2 7 -2 7 -2.875 4.3125 C-2.91625 3.549375 -2.9575 2.78625 -3 2 C-2.34 2 -1.68 2 -1 2 C-0.67 1.34 -0.34 0.68 0 0 Z " fill="#757575" transform="translate(3,11)"/>
<path d="M0 0 C1.89551022 -0.05441656 3.7914792 -0.09298035 5.6875 -0.125 C6.74324219 -0.14820312 7.79898437 -0.17140625 8.88671875 -0.1953125 C12.02251859 0.00141271 14.17645373 0.66942346 17 2 C16.34 3.32 15.68 4.64 15 6 C11.37 6 7.74 6 4 6 C3.67 4.68 3.34 3.36 3 2 C2.01 1.34 1.02 0.68 0 0 Z " fill="#4F4F4F" transform="translate(7,0)"/>
<path d="M0 0 C0.66 0.33 1.32 0.66 2 1 C1.67 2.32 1.34 3.64 1 5 C3.31 6.65 5.62 8.3 8 10 C7.67 10.99 7.34 11.98 7 13 C5.02 11.68 3.04 10.36 1 9 C0.34 10.65 -0.32 12.3 -1 14 C-1.99 13.67 -2.98 13.34 -4 13 C-3.01 11.35 -2.02 9.7 -1 8 C-1.99 8 -2.98 8 -4 8 C-4 7.34 -4 6.68 -4 6 C-3.34 6 -2.68 6 -2 6 C-1.34 4.02 -0.68 2.04 0 0 Z " fill="#222222" transform="translate(24,3)"/>
<path d="M0 0 C1.98 0.66 3.96 1.32 6 2 C6 2.66 6 3.32 6 4 C4.35 4.33 2.7 4.66 1 5 C3.31 5.66 5.62 6.32 8 7 C8 6.34 8 5.68 8 5 C9.65 5 11.3 5 13 5 C13 5.66 13 6.32 13 7 C14.65 7 16.3 7 18 7 C18 7.33 18 7.66 18 8 C15.04112541 8.08069658 12.0844341 8.14034665 9.125 8.1875 C7.86236328 8.22520508 7.86236328 8.22520508 6.57421875 8.26367188 C5.76855469 8.27333984 4.96289062 8.28300781 4.1328125 8.29296875 C3.38918457 8.3086792 2.64555664 8.32438965 1.87939453 8.34057617 C1.25919434 8.22818604 0.63899414 8.1157959 0 8 C-2 5 -2 5 -1.6875 2.875 C-1 1 -1 1 0 0 Z " fill="#545454" transform="translate(2,2)"/>
<path d="M0 0 C4.455 0.99 4.455 0.99 9 2 C9 2.99 9 3.98 9 5 C6 7 6 7 4 8 C1.375 6.5625 1.375 6.5625 -1 5 C-0.67 3.35 -0.34 1.7 0 0 Z " fill="#157575" transform="translate(3,11)"/>
<path d="M0 0 C1.67542976 0.28604898 3.34385343 0.61781233 5 1 C4.625 2.9375 4.625 2.9375 4 5 C3.01 5.495 3.01 5.495 2 6 C1.67 6.99 1.34 7.98 1 9 C0.34 8.67 -0.32 8.34 -1 8 C-1.04241723 5.66705225 -1.04092937 3.33297433 -1 1 C-0.67 0.67 -0.34 0.34 0 0 Z " fill="#0B5959" transform="translate(23,20)"/>
<path d="M0 0 C1.98 0 3.96 0 6 0 C5.49396008 2.16874252 5.00016187 3.99967627 4 6 C1.69 6 -0.62 6 -3 6 C-2.67 4.68 -2.34 3.36 -2 2 C0.97 2.495 0.97 2.495 4 3 C4 2.34 4 1.68 4 1 C2.68 0.67 1.36 0.34 0 0 Z " fill="#D4D4D4" transform="translate(18,3)"/>
<path d="M0 0 C2 3.875 2 3.875 2 5 C-1.3 5 -4.6 5 -8 5 C-8 4.01 -8 3.02 -8 2 C-5.36 2 -2.72 2 0 2 C0 1.34 0 0.68 0 0 Z " fill="#060606" transform="translate(16,14)"/>
<path d="M0 0 C3 0 3 0 6 1 C5.360625 1.4125 4.72125 1.825 4.0625 2.25 C1.79009069 4.17810487 1.39803561 5.11424181 1 8 C-0.32 7.34 -1.64 6.68 -3 6 C-3 5.34 -3 4.68 -3 4 C-2.34 4 -1.68 4 -1 4 C-0.67 2.68 -0.34 1.36 0 0 Z " fill="#070707" transform="translate(25,24)"/>
<path d="M0 0 C1.65 0 3.3 0 5 0 C5 0.66 5 1.32 5 2 C6.65 2 8.3 2 10 2 C10 2.33 10 2.66 10 3 C7.70858714 3.05384521 5.41681812 3.09272087 3.125 3.125 C1.21074219 3.15980469 1.21074219 3.15980469 -0.7421875 3.1953125 C-4 3 -4 3 -6 1 C-3.03 1.495 -3.03 1.495 0 2 C0 1.34 0 0.68 0 0 Z " fill="#8B8B8B" transform="translate(10,7)"/>
<path d="M0 0 C-0.57584432 2.38564077 -1.22227595 4.66682784 -2 7 C-3.32 6.67 -4.64 6.34 -6 6 C-5.67 4.35 -5.34 2.7 -5 1 C-2 0 -2 0 0 0 Z " fill="#095D5D" transform="translate(23,11)"/>
<path d="M0 0 C0.66 0 1.32 0 2 0 C2.268125 0.639375 2.53625 1.27875 2.8125 1.9375 C3.88667752 4.33131686 3.88667752 4.33131686 7 5 C7 5.66 7 6.32 7 7 C2.25 6.25 2.25 6.25 0 4 C0 2.68 0 1.36 0 0 Z " fill="#666666" transform="translate(0,13)"/>
<path d="M0 0 C0.99 0 1.98 0 3 0 C3 0.99 3 1.98 3 3 C1.68 2.67 0.36 2.34 -1 2 C-0.67 1.34 -0.34 0.68 0 0 Z M-4 2 C-2.02 2.99 -2.02 2.99 0 4 C-0.66 4.66 -1.32 5.32 -2 6 C-2.66 5.34 -3.32 4.68 -4 4 C-4 3.34 -4 2.68 -4 2 Z " fill="#105A5A" transform="translate(9,13)"/>
<path d="M0 0 C1.65 0.99 3.3 1.98 5 3 C4.67 3.99 4.34 4.98 4 6 C2.35 4.68 0.7 3.36 -1 2 C-0.67 1.34 -0.34 0.68 0 0 Z " fill="#161616" transform="translate(27,10)"/>
</svg>
