<?xml version="1.0" encoding="UTF-8"?>
<svg version="1.1" xmlns="http://www.w3.org/2000/svg" width="32" height="32">
<path d="M0 0 C0.66 0 1.32 0 2 0 C2.81567174 1.43570266 3.62742093 2.87363434 4.4375 4.3125 C4.88996094 5.11300781 5.34242188 5.91351563 5.80859375 6.73828125 C7 9 7 9 8 12 C11.63 12 15.26 12 19 12 C19.103125 11.13375 19.20625 10.2675 19.3125 9.375 C20.03398414 5.83316877 21.27123261 3.15687958 23 0 C26.42156094 1.06186374 27.03200161 2.06057448 28.75 5.3125 C30.61782877 10.82259488 30.61782877 10.82259488 30 14 C28.1875 15.8125 28.1875 15.8125 26 17 C25.01 17 24.02 17 23 17 C22.9071875 17.86625 22.9071875 17.86625 22.8125 18.75 C21.61021373 22.07940814 20.028908 23.22216269 17 25 C12.23532454 24.91491651 8.79377128 23.90111922 5 21 C4.67 20.01 4.34 19.02 4 18 C2.989375 17.2575 1.97875 16.515 0.9375 15.75 C-1.78844979 13.57316239 -1.96114583 13.2671224 -2.5 9.5625 C-2.02083579 6.14845499 -1.25126734 3.20637257 0 0 Z " fill="#7C7C7C" transform="translate(2,2)"/>
<path d="M0 0 C0.66 0 1.32 0 2 0 C2.81567174 1.43570266 3.62742093 2.87363434 4.4375 4.3125 C4.88996094 5.11300781 5.34242188 5.91351563 5.80859375 6.73828125 C7 9 7 9 8 12 C12.29 12 16.58 12 21 12 C21.66 13.32 22.32 14.64 23 16 C17.375 17.125 17.375 17.125 14 16 C11.85744207 16.38932856 11.85744207 16.38932856 10 17 C10.99 17.33 11.98 17.66 13 18 C8.375 21 8.375 21 5 21 C4.67 20.01 4.34 19.02 4 18 C2.989375 17.2575 1.97875 16.515 0.9375 15.75 C-1.78844979 13.57316239 -1.96114583 13.2671224 -2.5 9.5625 C-2.02083579 6.14845499 -1.25126734 3.20637257 0 0 Z " fill="#A3A3A3" transform="translate(2,2)"/>
<path d="M0 0 C0.66 0 1.32 0 2 0 C2.81567174 1.43570266 3.62742093 2.87363434 4.4375 4.3125 C4.88996094 5.11300781 5.34242188 5.91351563 5.80859375 6.73828125 C7 9 7 9 8 12 C7.01 12.66 6.02 13.32 5 14 C4.67 14.99 4.34 15.98 4 17 C1.53199953 15.84826645 -0.04783565 14.95216435 -2 13 C-2.37076135 8.18010242 -1.75210338 4.48976491 0 0 Z " fill="#007171" transform="translate(2,2)"/>
<path d="M0 0 C1.8125 0.5 1.8125 0.5 4 2 C5.26152609 4.5863924 6.15643045 7.25200829 7 10 C5.625 11.5 5.625 11.5 4 13 C3.34 13 2.68 13 2 13 C2 12.34 2 11.68 2 11 C0.68 10.34 -0.64 9.68 -2 9 C-1.125 2.25 -1.125 2.25 0 0 Z " fill="#C0C0C0" transform="translate(25,2)"/>
<path d="M0 0 C2.4375 0.6875 2.4375 0.6875 5 2 C5.928125 2.37125 6.85625 2.7425 7.8125 3.125 C8.534375 3.41375 9.25625 3.7025 10 4 C8.9375 5.5625 8.9375 5.5625 7 7 C2.39832147 6.83266624 -0.58660308 6.14032517 -4 3 C-2.3125 1.375 -2.3125 1.375 0 0 Z " fill="#525252" transform="translate(12,20)"/>
<path d="M0 0 C1.70884005 1.62339805 3.37446717 3.29319053 5 5 C5 5.66 5 6.32 5 7 C6.65 6.01 8.3 5.02 10 4 C9.6875 6.375 9.6875 6.375 9 9 C6 11 6 11 3 11 C2.71125 10.360625 2.4225 9.72125 2.125 9.0625 C1.17176549 6.84793921 1.17176549 6.84793921 -1 6 C-0.67 4.02 -0.34 2.04 0 0 Z " fill="#58582F" transform="translate(22,8)"/>
<path d="M0 0 C0 0.66 0 1.32 0 2 C-4.86453831 2.97290766 -7.32725624 2.55758125 -12 1 C-8.40043879 -2.59956121 -4.19844797 -2.74513906 0 0 Z " fill="#F4F4F4" transform="translate(25,16)"/>
<path d="M0 0 C0.66 0.33 1.32 0.66 2 1 C2 1.66 2 2.32 2 3 C1.01 3.66 0.02 4.32 -1 5 C-1.33 5.99 -1.66 6.98 -2 8 C-3.32 7.34 -4.64 6.68 -6 6 C-6 5.01 -6 4.02 -6 3 C-5.01 3 -4.02 3 -3 3 C-1.31201173 1.56249809 -1.31201173 1.56249809 0 0 Z " fill="#003636" transform="translate(8,11)"/>
<path d="M0 0 C0.6875 1.8125 0.6875 1.8125 1 4 C-0.3125 5.75 -0.3125 5.75 -2 7 C-2.66 7 -3.32 7 -4 7 C-4 6.34 -4 5.68 -4 5 C-4.66 4.67 -5.32 4.34 -6 4 C-2.25 0 -2.25 0 0 0 Z " fill="#ACACAC" transform="translate(31,8)"/>
<path d="M0 0 C3 1 3 1 3 1 Z " fill="#808080" transform="translate(23,29)"/>
<path d="M0 0 C3 1 3 1 3 1 Z " fill="#808080" transform="translate(6,29)"/>
<path d="M0 0 C2 1 2 1 2 1 Z " fill="#808080" transform="translate(22,27)"/>
<path d="M0 0 C2 1 2 1 2 1 Z " fill="#808080" transform="translate(8,27)"/>
<path d="" fill="#808080" transform="translate(0,0)"/>
<path d="" fill="#808080" transform="translate(0,0)"/>
<path d="" fill="#808080" transform="translate(0,0)"/>
<path d="" fill="#808080" transform="translate(0,0)"/>
<path d="" fill="#808080" transform="translate(0,0)"/>
<path d="" fill="#808080" transform="translate(0,0)"/>
</svg>
