<?xml version="1.0" encoding="UTF-8"?>
<svg version="1.1" xmlns="http://www.w3.org/2000/svg" width="32" height="32">
<path d="M0 0 C2.82957829 0.36276645 5.29084291 1.09694764 8 2 C9.19625 2.165 10.3925 2.33 11.625 2.5 C15 3 15 3 16 4 C16.15351581 6.63929097 16.23163061 9.23439959 16.25 11.875 C16.270625 12.60847656 16.29125 13.34195312 16.3125 14.09765625 C16.35207762 19.52968433 16.35207762 19.52968433 14.72851562 21.69848633 C12.68329566 23.23846763 11.55247919 23.43975297 9.015625 23.58203125 C7.85933594 23.64874023 7.85933594 23.64874023 6.6796875 23.71679688 C5.87789062 23.74837891 5.07609375 23.77996094 4.25 23.8125 C3.46367187 23.86341797 2.67734375 23.91433594 1.8671875 23.96679688 C-3.21015718 24.21560363 -7.20925205 23.72441844 -12 22 C-13.98467163 20.01532837 -13.31944275 16.38707719 -13.375 13.6875 C-13.41238281 13.01009766 -13.44976562 12.33269531 -13.48828125 11.63476562 C-13.55482963 7.85259957 -13.30227399 6.32157888 -10.67578125 3.52734375 C-7.51536629 1.72336967 -5.57860072 1.84095108 -2 2 C-1.34 1.34 -0.68 0.68 0 0 Z " fill="#7E7E7E" transform="translate(14,4)"/>
<path d="M0 0 C2.82957829 0.36276645 5.29084291 1.09694764 8 2 C10.33006911 2.35543427 12.66327016 2.6913753 15 3 C15.042721 4.66611905 15.04063832 6.33382885 15 8 C13.12125963 9.87874037 9.87669022 9.42280258 7.32421875 9.62109375 C4.87474824 10.02041919 3.18980293 10.87262265 1 12 C-1.1875 11.75 -1.1875 11.75 -3 11 C-3.33 10.34 -3.66 9.68 -4 9 C-6.64 9 -9.28 9 -12 9 C-11.6875 6.625 -11.6875 6.625 -11 4 C-7.51852477 1.67901651 -6.05234873 2 -2 2 C-1.34 1.34 -0.68 0.68 0 0 Z " fill="#8A8A8A" transform="translate(14,4)"/>
<path d="M0 0 C0.33 0 0.66 0 1 0 C1.0809313 2.60478883 1.14045434 5.20706653 1.1875 7.8125 C1.22520508 8.91948242 1.22520508 8.91948242 1.26367188 10.04882812 C1.33655455 15.4178516 1.33655455 15.4178516 -0.15625 18 C-2.74999171 19.40677516 -4.75703617 19.29092814 -7.6875 19.1875 C-9.17830078 19.14689453 -9.17830078 19.14689453 -10.69921875 19.10546875 C-11.45847656 19.07066406 -12.21773437 19.03585938 -13 19 C-12.01 17.515 -12.01 17.515 -11 16 C-10.39539914 12.6142352 -10 9.43937692 -10 6 C-10 5.67 -10 5.34 -10 5 C-5.545 4.505 -5.545 4.505 -1 4 C-0.67 2.68 -0.34 1.36 0 0 Z " fill="#333333" transform="translate(29,8)"/>
<path d="M0 0 C0.33 0.99 0.66 1.98 1 3 C4.3 2.67 7.6 2.34 11 2 C10.67 2.99 10.34 3.98 10 5 C11.32 5.33 12.64 5.66 14 6 C12.68 6 11.36 6 10 6 C10 6.66 10 7.32 10 8 C9.01 8.495 9.01 8.495 8 9 C6.86649466 11.01669827 6.86649466 11.01669827 6 13 C6 11 6 9 6 7 C5.70437633 12.32170494 5.70437633 12.32170494 8 17 C5.125 17.125 5.125 17.125 2 17 C0 15 0 15 -0.1953125 11.5234375 C-0.18201493 10.14049032 -0.15816232 8.75761346 -0.125 7.375 C-0.11597656 6.66859375 -0.10695312 5.9621875 -0.09765625 5.234375 C-0.07407603 3.48943902 -0.03820461 1.74467705 0 0 Z " fill="#252525" transform="translate(1,10)"/>
<path d="M0 0 C0.33 0 0.66 0 1 0 C1.0809313 2.60478883 1.14045434 5.20706653 1.1875 7.8125 C1.22520508 8.91948242 1.22520508 8.91948242 1.26367188 10.04882812 C1.33655455 15.4178516 1.33655455 15.4178516 -0.15625 18 C-2.74999171 19.40677516 -4.75703617 19.29092814 -7.6875 19.1875 C-9.17830078 19.14689453 -9.17830078 19.14689453 -10.69921875 19.10546875 C-11.45847656 19.07066406 -12.21773437 19.03585938 -13 19 C-11 17 -11 17 -7.375 16.875 C-5.704375 16.936875 -5.704375 16.936875 -4 17 C-3.15054595 13.60218379 -2.88876506 11.33370482 -4 8 C-4.33 7.01 -4.66 6.02 -5 5 C-3.68 4.67 -2.36 4.34 -1 4 C-0.67 2.68 -0.34 1.36 0 0 Z " fill="#0A0A0A" transform="translate(29,8)"/>
<path d="M0 0 C2.87506421 -0.02712325 5.74986908 -0.04689851 8.625 -0.0625 C9.83736328 -0.07506836 9.83736328 -0.07506836 11.07421875 -0.08789062 C15.50341918 -0.1058955 19.63883424 0.10377338 24 1 C24 1.33 24 1.66 24 2 C22.94039062 2.13277344 21.88078125 2.26554688 20.7890625 2.40234375 C19.40101721 2.58053875 18.01299769 2.7589346 16.625 2.9375 C15.92632813 3.02451172 15.22765625 3.11152344 14.5078125 3.20117188 C10.63216425 3.66318128 10.63216425 3.66318128 7 5 C4.3276379 5.13415472 1.67749512 5.04318541 -1 5 C-0.67 3.35 -0.34 1.7 0 0 Z " fill="#D2D2D2" transform="translate(3,8)"/>
<path d="M0 0 C4.37081182 0.51421316 8.02704918 2.20827708 12 4 C12 4.33 12 4.66 12 5 C5.07 5 -1.86 5 -9 5 C-9.33 4.34 -9.66 3.68 -10 3 C-9.2575 2.855625 -8.515 2.71125 -7.75 2.5625 C-3.54104514 1.9850722 -3.54104514 1.9850722 0 0 Z " fill="#4C4C4C" transform="translate(14,4)"/>
<path d="M0 0 C0.33 0.99 0.66 1.98 1 3 C1.66 3.33 2.32 3.66 3 4 C2.34 4 1.68 4 1 4 C1 6.64 1 9.28 1 12 C3.2236068 10.0745356 3.2236068 10.0745356 4 7 C4.33 7 4.66 7 5 7 C5.12375 8.093125 5.2475 9.18625 5.375 10.3125 C5.75464801 14.07381802 5.75464801 14.07381802 8 17 C5.125 17.125 5.125 17.125 2 17 C0 15 0 15 -0.1953125 11.5234375 C-0.18201493 10.14049032 -0.15816232 8.75761346 -0.125 7.375 C-0.11597656 6.66859375 -0.10695312 5.9621875 -0.09765625 5.234375 C-0.07407603 3.48943902 -0.03820461 1.74467705 0 0 Z " fill="#171717" transform="translate(1,10)"/>
<path d="M0 0 C0.33 0 0.66 0 1 0 C1.125 3.375 1.125 3.375 1 7 C0.34 7.66 -0.32 8.32 -1 9 C-2.32 8.34 -3.64 7.68 -5 7 C-5 6.34 -5 5.68 -5 5 C-3.68 4.67 -2.36 4.34 -1 4 C-0.67 2.68 -0.34 1.36 0 0 Z " fill="#151515" transform="translate(29,8)"/>
<path d="M0 0 C1.98 0.99 1.98 0.99 4 2 C3.67 3.98 3.34 5.96 3 8 C2.01 8 1.02 8 0 8 C0 5.36 0 2.72 0 0 Z " fill="#626262" transform="translate(2,14)"/>
<path d="M0 0 C2.31 0.33 4.62 0.66 7 1 C6.01 2.485 6.01 2.485 5 4 C2.03 3.505 2.03 3.505 -1 3 C-0.67 2.01 -0.34 1.02 0 0 Z " fill="#D6D6D6" transform="translate(12,12)"/>
</svg>
