<?xml version="1.0" encoding="UTF-8"?>
<svg version="1.1" xmlns="http://www.w3.org/2000/svg" width="32" height="32">
<path d="M0 0 C4.57627119 -0.12711864 4.57627119 -0.12711864 6.875 0.5625 C9.17939092 1.16549685 9.17939092 1.16549685 12.25 0.5 C15.36043307 0.08527559 17.35488795 0.06700903 20.375 0.5 C21.57125 0.665 22.7675 0.83 24 1 C24.33 0.67 24.66 0.34 25 0 C26.66617115 -0.04063832 28.33388095 -0.042721 30 0 C30.06859127 2.46928572 30.1093669 4.61113993 29.4375 7 C28.87265587 9.58214457 29.45946633 11.41745025 30 14 C30.15026302 18.20736465 29.8455276 21.89315167 29 26 C29.33 26.33 29.66 26.66 30 27 C30.04063832 28.66617115 30.042721 30.33388095 30 32 C25.42372881 32.12711864 25.42372881 32.12711864 23.125 31.4375 C20.82060908 30.83450315 20.82060908 30.83450315 17.75 31.5 C14.63956693 31.91472441 12.64511205 31.93299097 9.625 31.5 C8.42875 31.335 7.2325 31.17 6 31 C5.67 31.33 5.34 31.66 5 32 C3.33382885 32.04063832 1.66611905 32.042721 0 32 C-0.06859127 29.53071428 -0.1093669 27.38886007 0.5625 25 C1.12734413 22.41785543 0.54053367 20.58254975 0 18 C-0.15026302 13.79263535 0.1544724 10.10684833 1 6 C0.67 5.67 0.34 5.34 0 5 C-0.04063832 3.33382885 -0.042721 1.66611905 0 0 Z " fill="#151907" transform="translate(1,0)"/>
<path d="M0 0 C0.99 0 1.98 0 3 0 C2.979375 1.216875 2.95875 2.43375 2.9375 3.6875 C2.93179042 6.94196171 3.34572914 9.81042955 4 13 C4.15026302 17.20736465 3.8455276 20.89315167 3 25 C3.33 25.33 3.66 25.66 4 26 C4.04063832 27.66617115 4.042721 29.33388095 4 31 C1.53071428 31.06859127 -0.61113993 31.1093669 -3 30.4375 C-5.56009512 29.87747919 -7.48326486 30.37081622 -10 31 C-10 30.01 -10 29.02 -10 28 C-10.66 27.67 -11.32 27.34 -12 27 C-11.67 26.34 -11.34 25.68 -11 25 C-9.02 25 -7.04 25 -5 25 C-5 25.66 -5 26.32 -5 27 C-3.68 27 -2.36 27 -1 27 C-1 27.66 -1 28.32 -1 29 C-0.01 29 0.98 29 2 29 C2 28.01 2 27.02 2 26 C1.34 26 0.68 26 0 26 C0 24.68 0 23.36 0 22 C-1.98 22.99 -1.98 22.99 -4 24 C-4 23.01 -4 22.02 -4 21 C-4.10583795 19.01971618 -4.23318798 17.04053313 -4.375 15.0625 C-4.44460937 14.02222656 -4.51421875 12.98195313 -4.5859375 11.91015625 C-4.97821965 9.15307885 -5.5927204 7.37406924 -7 5 C-6.071875 5.020625 -5.14375 5.04125 -4.1875 5.0625 C-0.97713989 5.15769604 -0.97713989 5.15769604 2 4 C2 3.01 2 2.02 2 1 C1.34 0.67 0.68 0.34 0 0 Z " fill="#637C0F" transform="translate(27,1)"/>
<path d="M0 0 C4.57627119 -0.12711864 4.57627119 -0.12711864 6.875 0.5625 C9.17228386 1.1716233 9.17228386 1.1716233 12.1875 0.4375 C16.84644823 -0.0971334 20.52525318 0.772235 25 2 C25 2.66 25 3.32 25 4 C21.84493858 4.93619813 19.03413498 5.1057123 15.75 5.0625 C14.85796875 5.05347656 13.9659375 5.04445313 13.046875 5.03515625 C12.37140625 5.02355469 11.6959375 5.01195312 11 5 C11 4.34 11 3.68 11 3 C9.02 3.33 7.04 3.66 5 4 C5 3.34 5 2.68 5 2 C4.01 2 3.02 2 2 2 C2 2.99 2 3.98 2 5 C2.66 5 3.32 5 4 5 C5.15835838 8.6773282 5.13312878 12.16321423 5.125 16 C5.12757813 17.216875 5.13015625 18.43375 5.1328125 19.6875 C5.02616155 22.34750011 4.79307874 24.48228971 4 27 C3.34 27 2.68 27 2 27 C2 27.99 2 28.98 2 30 C2.99 30 3.98 30 5 30 C5 29.34 5 28.68 5 28 C6.32 28.33 7.64 28.66 9 29 C8.01 29 7.02 29 6 29 C5.67 29.99 5.34 30.98 5 32 C3.35 32 1.7 32 0 32 C-0.06859127 29.53071428 -0.1093669 27.38886007 0.5625 25 C1.12734413 22.41785543 0.54053367 20.58254975 0 18 C-0.15026302 13.79263535 0.1544724 10.10684833 1 6 C0.67 5.67 0.34 5.34 0 5 C-0.04063832 3.33382885 -0.042721 1.66611905 0 0 Z " fill="#5A5A00" transform="translate(1,0)"/>
<path d="M0 0 C1.98 0 3.96 0 6 0 C5.67515625 0.81404297 5.67515625 0.81404297 5.34375 1.64453125 C5.0653125 2.35996094 4.786875 3.07539063 4.5 3.8125 C4.2215625 4.52019531 3.943125 5.22789063 3.65625 5.95703125 C2.8470838 8.11841216 2.8470838 8.11841216 3 11 C3.309375 10.071875 3.61875 9.14375 3.9375 8.1875 C4.625 6.125 5.3125 4.0625 6 2 C7.65 2 9.3 2 11 2 C11.77842938 5.40562852 12.09978121 8.50765756 12 12 C11.34 12 10.68 12 10 12 C10.33 14.31 10.66 16.62 11 19 C9.35 19 7.7 19 6 19 C5.67 19.66 5.34 20.32 5 21 C4.34 19.35 3.68 17.7 3 16 C2.01 18.475 2.01 18.475 1 21 C0.67 21 0.34 21 0 21 C0 14.07 0 7.14 0 0 Z " fill="#4F5A4F" transform="translate(7,6)"/>
<path d="M0 0 C0.33 0 0.66 0 1 0 C1.16777183 1.79156352 1.33418294 3.5832545 1.5 5.375 C1.5928125 6.37273438 1.685625 7.37046875 1.78125 8.3984375 C2 11 2 11 2 13 C2.99 12.67 3.98 12.34 5 12 C5 13.32 5 14.64 5 16 C5.66 16 6.32 16 7 16 C7 16.99 7 17.98 7 19 C6.01 19 5.02 19 4 19 C4 18.34 4 17.68 4 17 C0.7 16.67 -2.6 16.34 -6 16 C-4.77119784 17.2941742 -4.77119784 17.2941742 -2 19 C-5.77494907 20.83354669 -7.97113896 21.27227191 -12 20 C-12.99 19.34 -13.98 18.68 -15 18 C-14.01 18 -13.02 18 -12 18 C-11.67 17.01 -11.34 16.02 -11 15 C-7.535 14.505 -7.535 14.505 -4 14 C-4.33 12.02 -4.66 10.04 -5 8 C-4.01 7.67 -3.02 7.34 -2 7 C-2 5.35 -2 3.7 -2 2 C-1.34 2 -0.68 2 0 2 C0 1.34 0 0.68 0 0 Z " fill="#364336" transform="translate(22,11)"/>
<path d="M0 0 C4.57627119 -0.12711864 4.57627119 -0.12711864 6.875 0.5625 C9.17228386 1.1716233 9.17228386 1.1716233 12.1875 0.4375 C16.84644823 -0.0971334 20.52525318 0.772235 25 2 C25 2.66 25 3.32 25 4 C21.84493858 4.93619813 19.03413498 5.1057123 15.75 5.0625 C14.85796875 5.05347656 13.9659375 5.04445313 13.046875 5.03515625 C12.37140625 5.02355469 11.6959375 5.01195312 11 5 C11 4.34 11 3.68 11 3 C9.02 3.33 7.04 3.66 5 4 C5 3.34 5 2.68 5 2 C4.01 2 3.02 2 2 2 C2 2.99 2 3.98 2 5 C2.66 5 3.32 5 4 5 C3.67 6.32 3.34 7.64 3 9 C3 8.01 3 7.02 3 6 C2.01 5.67 1.02 5.34 0 5 C0 3.35 0 1.7 0 0 Z " fill="#6D6D00" transform="translate(1,0)"/>
<path d="M0 0 C1.98 0 3.96 0 6 0 C6 4.95 6 9.9 6 15 C5.01 15 4.02 15 3 15 C2.95101563 14.25234375 2.90203125 13.5046875 2.8515625 12.734375 C2.77679687 11.74953125 2.70203125 10.7646875 2.625 9.75 C2.55539063 8.77546875 2.48578125 7.8009375 2.4140625 6.796875 C2.01534751 4.10366811 1.36492937 2.33036721 0 0 Z " fill="#B1C4B1" transform="translate(20,6)"/>
<path d="M0 0 C0.99 0 1.98 0 3 0 C2.979375 1.216875 2.95875 2.43375 2.9375 3.6875 C2.92401453 6.23625418 3.05575559 8.24532462 3.625 10.75 C4.08442433 13.50654601 3.4631818 14.67612302 2 17 C1.01 16.67 0.02 16.34 -1 16 C-1.14285714 7.42857143 -1.14285714 7.42857143 0 4 C0.66 4 1.32 4 2 4 C2 3.01 2 2.02 2 1 C1.34 0.67 0.68 0.34 0 0 Z " fill="#707000" transform="translate(27,1)"/>
<path d="M0 0 C1.65 0 3.3 0 5 0 C5.77842938 3.40562852 6.09978121 6.50765756 6 10 C4.35 10.33 2.7 10.66 1 11 C1.66 10.01 2.32 9.02 3 8 C2.24849977 4.72226496 2.24849977 4.72226496 -1 3 C-0.67 2.01 -0.34 1.02 0 0 Z " fill="#CFCFCF" transform="translate(13,8)"/>
<path d="M0 0 C-1.485 1.485 -1.485 1.485 -3 3 C-1.35 3.33 0.3 3.66 2 4 C-0.99461723 5.99641149 -2.48430284 6.6651717 -6 7 C-8.8125 6.0625 -8.8125 6.0625 -11 5 C-10.01 4.67 -9.02 4.34 -8 4 C-7.67 3.01 -7.34 2.02 -7 1 C-4.53721199 -0.231394 -2.7204945 -0.07159196 0 0 Z " fill="#454505" transform="translate(18,25)"/>
<path d="M0 0 C1.98 0 3.96 0 6 0 C5.319375 1.7634375 5.319375 1.7634375 4.625 3.5625 C3.20671892 7.33338003 2.05286822 11.11248657 1 15 C-0.00109515 11.68929162 -0.10356134 8.69915231 -0.0625 5.25 C-0.05347656 4.26515625 -0.04445313 3.2803125 -0.03515625 2.265625 C-0.02355469 1.51796875 -0.01195312 0.7703125 0 0 Z " fill="#A8C7B2" transform="translate(7,6)"/>
<path d="M0 0 C2 2 2 2 3 5 C2.34 5.66 1.68 6.32 1 7 C-0.32 7 -1.64 7 -3 7 C-3 7.66 -3 8.32 -3 9 C-3.99 9 -4.98 9 -6 9 C-6 8.01 -6 7.02 -6 6 C-5.34 6 -4.68 6 -4 6 C-3.67 4.35 -3.34 2.7 -3 1 C-2.34 1.66 -1.68 2.32 -1 3 C-0.67 2.01 -0.34 1.02 0 0 Z " fill="#14140A" transform="translate(9,21)"/>
<path d="M0 0 C2.31 0 4.62 0 7 0 C7 0.99 7 1.98 7 3 C7.99 3.33 8.98 3.66 10 4 C7.09399739 5.25664978 5.20395416 6 2 6 C2 5.01 2 4.02 2 3 C1.34 2.67 0.68 2.34 0 2 C0 1.34 0 0.68 0 0 Z " fill="#696911" transform="translate(15,26)"/>
<path d="M0 0 C0.33 1.32 0.66 2.64 1 4 C0.34 4 -0.32 4 -1 4 C-1 4.99 -1 5.98 -1 7 C-0.01 7 0.98 7 2 7 C2 6.34 2 5.68 2 5 C3.32 5.33 4.64 5.66 6 6 C5.01 6 4.02 6 3 6 C2.67 6.99 2.34 7.98 2 9 C0.35 9 -1.3 9 -3 9 C-3 7.35 -3 5.7 -3 4 C-2.01 3.67 -1.02 3.34 0 3 C0 2.01 0 1.02 0 0 Z " fill="#9A9A00" transform="translate(4,23)"/>
<path d="M0 0 C0.33 0.99 0.66 1.98 1 3 C1.99 3.33 2.98 3.66 4 4 C4 5.65 4 7.3 4 9 C2.35 9 0.7 9 -1 9 C-1.33 8.01 -1.66 7.02 -2 6 C-2.99 5.67 -3.98 5.34 -5 5 C-3.68 5 -2.36 5 -1 5 C-1 5.66 -1 6.32 -1 7 C-0.01 7 0.98 7 2 7 C2 6.01 2 5.02 2 4 C1.34 4 0.68 4 0 4 C0 2.68 0 1.36 0 0 Z " fill="#9A9A00" transform="translate(27,23)"/>
<path d="M0 0 C1.65 0 3.3 0 5 0 C5.33 0.99 5.66 1.98 6 3 C6.99 3.33 7.98 3.66 9 4 C7.68 4 6.36 4 5 4 C5 3.34 5 2.68 5 2 C4.01 2 3.02 2 2 2 C2 2.99 2 3.98 2 5 C2.66 5 3.32 5 4 5 C3.67 6.32 3.34 7.64 3 9 C3 8.01 3 7.02 3 6 C2.01 5.67 1.02 5.34 0 5 C0 3.35 0 1.7 0 0 Z " fill="#9A9A00" transform="translate(1,0)"/>
<path d="M0 0 C1.98 0 3.96 0 6 0 C5.67 2.31 5.34 4.62 5 7 C1.125 2.25 1.125 2.25 0 0 Z " fill="#72D5D5" transform="translate(20,6)"/>
<path d="M0 0 C0.66 0 1.32 0 2 0 C2 1.32 2 2.64 2 4 C2.66 4 3.32 4 4 4 C4 4.99 4 5.98 4 7 C3.01 7 2.02 7 1 7 C1 6.34 1 5.68 1 5 C-0.32 5 -1.64 5 -3 5 C-2 3 -2 3 0 1 C0 0.67 0 0.34 0 0 Z " fill="#121E00" transform="translate(25,23)"/>
<path d="M0 0 C0.99 0.33 1.98 0.66 3 1 C3 2.32 3 3.64 3 5 C1.35 5 -0.3 5 -2 5 C-2.33 4.34 -2.66 3.68 -3 3 C-2.01 2.01 -1.02 1.02 0 0 Z " fill="#E8E8E8" transform="translate(15,20)"/>
<path d="M0 0 C1.65 0 3.3 0 5 0 C5 0.99 5 1.98 5 3 C3.35 3.33 1.7 3.66 0 4 C0 2.68 0 1.36 0 0 Z " fill="#E2E2E2" transform="translate(13,8)"/>
<path d="M0 0 C0.66 0.99 1.32 1.98 2 3 C1.125 6.1875 1.125 6.1875 0 9 C-0.66 8.67 -1.32 8.34 -2 8 C-1.125 1.125 -1.125 1.125 0 0 Z " fill="#0D0D0D" transform="translate(11,9)"/>
<path d="M0 0 C1.98 0 3.96 0 6 0 C5.01 1.98 4.02 3.96 3 6 C2.34 5.67 1.68 5.34 1 5 C0.375 2.4375 0.375 2.4375 0 0 Z " fill="#3CEBEB" transform="translate(7,6)"/>
<path d="M0 0 C2 2 2 2 2.125 5.125 C2.08375 6.07375 2.0425 7.0225 2 8 C1.01 8.495 1.01 8.495 0 9 C-0.66 8.34 -1.32 7.68 -2 7 C-1.34 7 -0.68 7 0 7 C0 5.35 0 3.7 0 2 C-0.66 1.67 -1.32 1.34 -2 1 C-1.34 0.67 -0.68 0.34 0 0 Z " fill="#000000" transform="translate(19,11)"/>
</svg>
