<?xml version="1.0" encoding="UTF-8"?>
<svg version="1.1" xmlns="http://www.w3.org/2000/svg" width="32" height="32">
<path d="M0 0 C0.79921875 0.01289063 1.5984375 0.02578125 2.421875 0.0390625 C3.246875 0.07257812 4.071875 0.10609375 4.921875 0.140625 C5.76234375 0.15867188 6.6028125 0.17671875 7.46875 0.1953125 C9.53694895 0.24231702 11.60455941 0.31405776 13.671875 0.390625 C13.78802429 4.4737192 13.85910957 8.55638877 13.921875 12.640625 C13.97214844 14.37892578 13.97214844 14.37892578 14.0234375 16.15234375 C14.03632813 17.26738281 14.04921875 18.38242187 14.0625 19.53125 C14.08344727 20.55766602 14.10439453 21.58408203 14.12597656 22.64160156 C13.54680786 26.14775187 12.50602836 27.29828047 9.671875 29.390625 C7.56542969 29.84472656 7.56542969 29.84472656 5.34375 29.78125 C4.54453125 29.76835937 3.7453125 29.75546875 2.921875 29.7421875 C2.096875 29.70867188 1.271875 29.67515625 0.421875 29.640625 C-0.41859375 29.62257813 -1.2590625 29.60453125 -2.125 29.5859375 C-4.19319895 29.53893298 -6.26080941 29.46719224 -8.328125 29.390625 C-8.44427429 25.3075308 -8.51535957 21.22486123 -8.578125 17.140625 C-8.61164062 15.98175781 -8.64515625 14.82289062 -8.6796875 13.62890625 C-8.69257813 12.51386719 -8.70546875 11.39882812 -8.71875 10.25 C-8.73969727 9.22358398 -8.76064453 8.19716797 -8.78222656 7.13964844 C-7.94874544 2.09395088 -5.01086633 -0.14316761 0 0 Z " fill="#696921" transform="translate(13.328125,1.609375)"/>
<path d="M0 0 C5.94 0 11.88 0 18 0 C18.10762928 4.10486132 18.18714805 8.20692052 18.25 12.3125 C18.28351562 13.47974609 18.31703125 14.64699219 18.3515625 15.84960938 C18.36445313 16.96787109 18.37734375 18.08613281 18.390625 19.23828125 C18.41157227 20.26993408 18.43251953 21.30158691 18.45410156 22.36450195 C18 25 18 25 15.97558594 26.86010742 C15.32364258 27.23627197 14.67169922 27.61243652 14 28 C13.94214353 24.04172765 13.90645283 20.0835633 13.875 16.125 C13.85824219 14.99707031 13.84148438 13.86914062 13.82421875 12.70703125 C13.81777344 11.63066406 13.81132812 10.55429688 13.8046875 9.4453125 C13.79421387 8.45031738 13.78374023 7.45532227 13.77294922 6.43017578 C14 4 14 4 16 2 C10.72 1.67 5.44 1.34 0 1 C0 0.67 0 0.34 0 0 Z " fill="#4D4D00" transform="translate(9,2)"/>
<path d="M0 0 C3.96 0 7.92 0 12 0 C12 2.64 12 5.28 12 8 C8.04 8 4.08 8 0 8 C0 5.36 0 2.72 0 0 Z " fill="#E9E994" transform="translate(8,20)"/>
<path d="M0 0 C3.96 0 7.92 0 12 0 C12 2.64 12 5.28 12 8 C8.04 8 4.08 8 0 8 C0 5.36 0 2.72 0 0 Z " fill="#EAEA91" transform="translate(8,9)"/>
<path d="M0 0 C4.62 0 9.24 0 14 0 C14 7.92 14 15.84 14 24 C13.34 24 12.68 24 12 24 C12 16.74 12 9.48 12 2 C8.04 2 4.08 2 0 2 C0 1.34 0 0.68 0 0 Z " fill="#D7D7AD" transform="translate(9,6)"/>
<path d="M0 0 C5.28 0 10.56 0 16 0 C15.01 1.485 15.01 1.485 14 3 C11.25 3.3984375 11.25 3.3984375 8 3.375 C6.39125 3.38660156 6.39125 3.38660156 4.75 3.3984375 C3.8425 3.26695313 2.935 3.13546875 2 3 C1.34 2.01 0.68 1.02 0 0 Z " fill="#E4E464" transform="translate(10,3)"/>
<path d="M0 0 C1.98 0 3.96 0 6 0 C6 0.99 6 1.98 6 3 C4.02 3 2.04 3 0 3 C0 2.01 0 1.02 0 0 Z " fill="#383800" transform="translate(11,22)"/>
<path d="M0 0 C1.98 0 3.96 0 6 0 C6 0.99 6 1.98 6 3 C4.02 3 2.04 3 0 3 C0 2.01 0 1.02 0 0 Z " fill="#383800" transform="translate(11,11)"/>
</svg>
